<?xml version="1.0" standalone="no"?>
<!DOCTYPE svg PUBLIC "-//W3C//DTD SVG 20010904//EN"
 "http://www.w3.org/TR/2001/REC-SVG-20010904/DTD/svg10.dtd">
<svg version="1.0" xmlns="http://www.w3.org/2000/svg"
 width="736.000000pt" height="736.000000pt" viewBox="0 0 736.000000 736.000000"
 preserveAspectRatio="xMidYMid meet">
<metadata>
Created by potrace 1.14, written by Peter Selinger 2001-2017
</metadata>
<g transform="translate(0.000000,736.000000) scale(0.100000,-0.100000)"
fill="#000000" stroke="none">
<path d="M3638 6235 c-2 -2 -138 -6 -303 -9 -165 -3 -311 -8 -325 -10 -14 -3
-50 -8 -80 -11 -85 -10 -97 -13 -210 -43 -190 -52 -319 -117 -527 -266 -95
-69 -284 -284 -365 -417 -18 -30 -36 -56 -39 -59 -9 -8 -127 -251 -150 -310
-65 -167 -126 -380 -144 -505 -2 -11 -4 -20 -5 -20 -2 0 -8 -35 -15 -89 -4
-27 -8 -58 -11 -69 -2 -11 -6 -59 -10 -106 -3 -47 -7 -98 -9 -113 -1 -16 1
-28 4 -28 4 0 14 12 23 28 36 59 116 145 188 203 57 45 177 119 194 119 6 0
16 4 22 8 9 9 88 42 114 47 8 2 49 13 91 23 165 44 224 47 664 43 1107 -10
2507 -3 2691 14 92 9 181 21 224 30 14 4 36 8 50 11 14 3 33 7 42 10 9 3 25 6
35 8 57 11 249 84 341 128 93 45 287 159 302 177 3 3 22 17 42 31 21 14 38 28
38 33 0 4 5 7 11 7 6 0 16 6 23 13 7 6 34 30 60 52 168 141 343 340 487 555
97 144 114 174 172 290 23 47 46 88 50 91 5 3 9 10 9 15 1 13 8 35 23 69 8 16
12 32 9 34 -2 2 -118 6 -256 8 -305 6 -3455 12 -3460 8z"/>
<path d="M2257 3964 c-1 -1 -49 -4 -107 -8 -139 -8 -168 -12 -275 -31 -180
-32 -364 -87 -494 -148 -36 -17 -72 -32 -79 -33 -8 -1 -21 -9 -30 -17 -10 -8
-27 -18 -40 -22 -27 -8 -213 -130 -280 -183 -96 -75 -241 -217 -305 -295 -18
-22 -37 -44 -43 -51 -16 -17 -124 -164 -124 -169 0 -3 -18 -31 -39 -63 -55
-84 -144 -258 -200 -393 -55 -132 -135 -371 -127 -379 3 -3 2 -10 -3 -16 -5
-6 -14 -36 -21 -66 -30 -138 -38 -179 -46 -230 -4 -30 -8 -57 -9 -60 -1 -3 -5
-30 -9 -60 -4 -30 -9 -71 -12 -90 -3 -19 -7 -145 -9 -279 l-4 -245 24 37 c14
20 25 41 25 46 0 6 5 11 10 11 6 0 10 5 10 10 0 13 162 260 184 283 9 9 16 19
16 22 0 8 113 147 170 209 84 93 186 190 269 256 24 19 50 41 57 48 8 7 14 10
14 5 0 -4 4 -3 8 3 11 17 145 104 159 104 7 0 13 3 13 8 0 6 51 33 70 38 3 0
31 13 63 27 32 15 63 27 70 27 7 0 17 4 22 9 20 18 225 56 285 52 8 0 62 0
120 0 144 -1 211 -2 240 -5 14 -1 29 0 34 3 5 2 30 4 55 3 25 -1 98 -2 161 -1
63 0 122 0 130 0 68 -2 155 1 161 5 4 2 10 0 14 -6 4 -6 11 -8 16 -4 6 3 38 5
72 4 93 -3 96 -3 177 4 342 28 697 194 1039 483 75 64 335 325 391 392 25 30
60 70 77 90 18 20 33 39 33 43 0 4 13 22 29 40 43 48 101 127 101 137 0 5 7
14 15 21 36 30 261 392 260 419 0 12 -165 15 -1168 15 -643 1 -1169 0 -1170 0z"/>
</g>
</svg>
